<svg width="24" height="24" viewBox="0 0 24 24" fill="none" xmlns="http://www.w3.org/2000/svg">
<path d="M20.3023 16.9645V18.2093C20.3023 18.5946 19.99 18.907 19.6047 18.907H4.39535C4.01003 18.907 3.69767 18.5946 3.69767 18.2093V16.9622C3.69767 16.6339 3.92657 16.3501 4.24741 16.2804L10.3971 14.9461C10.4457 14.9355 10.4953 14.9302 10.545 14.9302H13.3866C13.4359 14.9302 13.485 14.9354 13.5332 14.9458L19.7513 16.2824C20.0727 16.3515 20.3023 16.6357 20.3023 16.9645Z" stroke="white" stroke-width="1.39535"/>
<rect x="4.39537" y="18.907" width="15.2093" height="2.16279" rx="0.697674" stroke="white" stroke-width="1.39535"/>
<circle cx="12" cy="6.8372" r="3.97674" stroke="white" stroke-width="1.39535"/>
<path d="M3 18.2093H21V18.907C21 19.2923 20.6876 19.6047 20.3023 19.6047H3.69767C3.31236 19.6047 3 19.2923 3 18.907V18.2093Z" fill="white"/>
<path d="M10.1101 10.814H13.8898L13.691 11.1754L13.6046 11.3324V11.5116V14.9302H10.3953V11.5116V11.3324L10.3089 11.1754L10.1101 10.814Z" stroke="white" stroke-width="1.39535"/>
</svg>
